<?xml version="1.0" encoding="UTF-8"?>
<!DOCTYPE svg PUBLIC "-//W3C//DTD SVG 1.1//EN" "http://www.w3.org/Graphics/SVG/1.1/DTD/svg11.dtd">
<!-- Creator: CorelDRAW 2021.5 -->
<svg xmlns="http://www.w3.org/2000/svg" xml:space="preserve" width="100mm" height="100mm" version="1.1" style="shape-rendering:geometricPrecision; text-rendering:geometricPrecision; image-rendering:optimizeQuality; fill-rule:evenodd; clip-rule:evenodd"
viewBox="0 0 10000 10000"
 xmlns:xlink="http://www.w3.org/1999/xlink"
 xmlns:xodm="http://www.corel.com/coreldraw/odm/2003">
 <defs>
  <style type="text/css">
   <![CDATA[
    .str0 {stroke:#E31E24;stroke-width:16.93;stroke-miterlimit:22.9256}
    .fil0 {fill:#2B2A29}
   ]]>
  </style>
 </defs>
 <g id="Слой_x0020_1">
  <metadata id="CorelCorpID_0Corel-Layer"/>
  <path class="fil0 str0" d="M4996.21 8713.32c1183.01,0 2252.79,-479.56 3027.79,-1254.37 778.32,-778.09 1259.39,-1853.98 1259.39,-3040.96 0,-1534.15 -802.91,-2880.28 -2010.57,-3639.98l0 2952.09 -606.65 0 0 -3269.36c-65.17,-27.63 -131.14,-53.74 -197.94,-78.15l-1195.35 3347.51 -568.88 0 -1162.79 -3353.51c-72.55,26.22 -144.3,54.18 -214.97,84.15l0 3269.36 -606.65 0 0 -2952.09c-1207.63,759.8 -2010.56,2105.83 -2010.56,3639.98 0,2372.26 1919.43,4295.33 4287.18,4295.33zm1013.98 -8469.46c-325.13,-79 -664.62,-121.18 -1013.98,-121.18 -320.7,0 -633.11,35.5 -933.68,102.46l732.57 2142.47c104.44,307.24 180,537.39 227.78,690.47 54.43,-169.37 139.99,-419.06 255.55,-748.02l731.76 -2066.2zm-338.53 9244.81c90.72,0 176.42,7.5 252.33,20.8l0 -1536.24 -1878.62 0c0.04,571.55 2.41,1143.62 2.41,1714.85 0,108.71 -252.34,196.85 -563.6,196.85 -311.27,0 -563.61,-88.14 -563.61,-196.85 0,-108.73 252.34,-196.87 563.61,-196.87 90.59,0 176.16,7.48 252,20.74l0 -1538.72 0 -14.39 0 -333.5 2497.28 0 0 347.89 -0.28 0c0.03,570.72 2.09,1141.85 2.09,1712.31 0,108.72 -252.34,196.86 -563.61,196.86 -311.26,0 -563.6,-88.14 -563.6,-196.86 0,-108.73 252.34,-196.87 563.6,-196.87zm-2957.96 -5662.95l4568.29 7.81 -2.69 1573.82c-0.61,355.16 -22.35,626.28 -66.27,813.36 -61.06,261.48 -170.96,484.61 -328.65,669.38 -204.6,241.02 -464.37,420.31 -781.45,538.86 -317.09,119.62 -679.81,178.54 -1087.08,177.85 -346.67,-0.59 -653.91,-41.53 -921.74,-122.8 -267.84,-81.29 -489.91,-185.88 -665.16,-312.72 -175.23,-127.89 -313.23,-266.38 -412.93,-417.54 -100.76,-150.11 -177.01,-332.08 -228.77,-544.84 -51.74,-213.83 -76.84,-458.46 -76.36,-734.94l2.81 -1648.24zm534.91 607.05l-1.67 974.06c-0.51,300.93 26.74,537.04 82.81,708.35 56.06,171.3 134.52,307.56 236.42,409.81 143.32,142.73 336.66,254.72 578.97,334.89 242.31,80.17 535.75,121.07 881.34,121.67 478.52,0.81 846.59,-77.25 1104.2,-233.13 257.6,-155.87 430.2,-345.91 517.77,-570.15 63.02,-161.53 94.31,-421.99 94.92,-781.41l1.65 -958.11 -3496.41 -5.98zm1747.6 1519.22c210.85,0 381.77,110.35 381.77,246.45 0,136.1 -170.92,246.45 -381.77,246.45 -210.84,0 -381.76,-110.35 -381.76,-246.45 0,-136.1 170.92,-246.45 381.76,-246.45z"/>
 </g>
</svg>
