<?xml version="1.0" encoding="UTF-8"?>
<!DOCTYPE svg PUBLIC "-//W3C//DTD SVG 1.1//EN" "http://www.w3.org/Graphics/SVG/1.1/DTD/svg11.dtd">
<!-- Creator: CorelDRAW 2021.5 -->
<svg xmlns="http://www.w3.org/2000/svg" xml:space="preserve" width="400mm" height="150mm" version="1.1" style="shape-rendering:geometricPrecision; text-rendering:geometricPrecision; image-rendering:optimizeQuality; fill-rule:evenodd; clip-rule:evenodd"
viewBox="0 0 564444.4 70000"
 xmlns:xlink="http://www.w3.org/1999/xlink"
 xmlns:xodm="http://www.corel.com/coreldraw/odm/2003">
 <defs>
  <style type="text/css">
  
   <![CDATA[
   @keyframes ellipse {
  0% {
    fill: #dcd4d1;
  }
  50% {
    fill: #aca19d;
  }
  100% {
    fill: #dcd4d1;
  }
}
@keyframes rot {
  0% {
    fill: black;
  }
  20% {
    fill: none;
  }
  60% {
    fill: black;
  }
  100% {
    fill: none;
  }
}
    .str0 {stroke:black;stroke-width:352.7;stroke-miterlimit:22.9256}
    .fil3 {fill:none}
    .fil1 {fill:black}
    .fil0 {fill:#DCD4D1}
    .fil01 {fill:#DCD4D1; filter: drop-shadow(70em 1em 70em black); animation-name: ellipse;
  animation-duration: 3s;
  animation-fill-mode: forwards;
  animation-iteration-count: infinite;}
    .fil2 {fill:white}
    .fil0 {filter: drop-shadow(70em 1em 70em black); animation-name: ellipse;
  animation-duration: 5s;
  animation-fill-mode: forwards;
  animation-iteration-count: infinite;}
    .fil1 {filter: drop-shadow(70em 1em 70em black)}
    .fil2 {filter: drop-shadow(70em 1em 70em black)}
    .fil3 {filter: drop-shadow(70em 1em 70em black)}
    .back {fill:#dcd4d1;filter:drop-shadow(70em 1em 70em black);}
    .face {fill:white}
    .mouth {fill:black; animation-name: rot;
  animation-duration: 5s;
  animation-fill-mode: forwards;
  animation-iteration-count: infinite;}
  
   ]]>
  </style>
     <clipPath id="id0">
      <path d="M50964.7 -11288.9l83842.8 0 0 183503.1 -83842.8 0 0 -183503.1z"/>
     </clipPath>
    <clipPath id="id1">
     <path d="M-5644.4 54595.9l102877.3 0 0 109947.4 -102877.3 0 0 -109947.4z"/>
    </clipPath>
    <clipPath id="id2">
     <path d="M73590.7 100365.1l75812.2 0 0 79420.1 -75812.2 0 0 -79420.1z"/>
    </clipPath>
    <clipPath id="id3">
     <path d="M422023 77966.4l98855.1 0 0 94069 -98855.1 0 0 -94069z"/>
    </clipPath>
    <clipPath id="id4">
     <path d="M243582.7 125035.9l63103 0 0 60047.9 -63103 0 0 -60047.9z"/>
    </clipPath>
    <clipPath id="id5">
     <path d="M207163.1 109288.6l70485.8 0 0 67073.7 -70485.8 0 0 -67073.7z"/>
    </clipPath>
    <clipPath id="id6">
     <path d="M116544.7 81154.1l103825.7 0 0 98798.8 -103825.7 0 0 -98798.8z"/>
    </clipPath>
    <clipPath id="id7">
     <path d="M176338.9 124035.7l61649.6 0 0 58664.9 -61649.6 0 0 -58664.9z"/>
    </clipPath>
    <clipPath id="id8">
     <path d="M501948.8 108701.3l58165.6 0 0 60934 -58165.6 0 0 -60934z"/>
    </clipPath>
    <clipPath id="id9">
     <path d="M34119.2 112909.5l53128 0 0 55657 -53128 0 0 -55657z"/>
     
    </clipPath>
    <clipPath id="id10">
     <path d="M278778.2 101347.8l94171.2 0 0 89611.9 -94171.2 0 0 -89611.9z"/>
    </clipPath>
 </defs>
 <g id="Слой_x0020_1">
  <metadata id="CorelCorpID_0Corel-Layer"/>
  <path class="back" d="M12905.5 79079.8c-13918.7,32070.5 -4687,70508.2 -4687,96749.5l546658.9 0c0,-26241.3 5653.4,-60877.9 0,-78723.8 -23911.9,-75482.2 -67121.8,-37821.2 -105680.3,-18025.7 -32317.9,16591.7 -68084.3,-11316.8 -88874.3,-4763.2 -93527.9,29481.9 -65686,-5691.2 -110203.8,-7166.3 -23107.6,-765.9 -24279.7,34700.8 -63505,28521.2 -66181.4,-10426.2 -70086.8,8871.1 -84041.8,8871.1 -20991.7,0 -75748.1,-57533.4 -89666.7,-25462.8z"/>
  <g id="_1997793336864">
   <g>
    <g style="clip-path:url(#id0)">
     <image x="50964.7" y="-11288.9" width="83842.8" height="183503.1" xlink:href="4_Images\4_ImgID1.jpg"/>
    </g>
   </g>
   <g>
    <path class="fil1 str0" d="M96543 57738c4252.7,-508.8 34378.4,11673.1 26432.5,38300.4 -5401.8,18101.7 -13820.3,55624.8 -14184.2,66162.4l-30232.5 0c-23.9,-1110.3 -35.5,-2213.2 -34.2,-3302.6 13.4,-11009 -5432.7,-49590.8 -9779.2,-68565.2 -6519.6,-28460.6 23795.9,-32116.3 27797.6,-32595z"/>
    <path class="face str0" d="M96250.1 20597.7c10766.9,0 19209.4,8732.6 17065.5,21250.4 -2143.9,12517.8 -7268.6,18831 -17494.2,22665.5 -10909.8,-2701.6 -13921.1,-10019.1 -17208.3,-22408.2 -3287.2,-12389.2 6870.2,-21507.7 17637,-21507.7z"/>
    <path class="face str0" d="M78049.1 38918c28.7,-357.2 4173.9,11813.7 5513.1,12105.5 2805.9,611.4 7816.7,2045.4 12221.8,1983.8 4007.2,-56.1 8765.4,-1275.5 11835.5,-1936.4 1913.7,-412 5962.9,-11934.9 5974.1,-11496.4 191.9,7529.9 -5132.8,28330.1 -6532.4,35689.4 -2178.8,11456 -6372.2,23033.5 -12441.1,23033.5 -6069,0 -8167.3,-13488.2 -10632.9,-23329.4 -2465.6,-9841.2 -7075.1,-21925.6 -5938.1,-36050z"/>
    <path class="fil1 str0" d="M97086.8 17201.2c15559.3,148.1 23867.6,21865.7 16506.8,22373.3 -7360.9,507.7 -23,-4402.9 -17403.9,-4067.2 -17381,335.7 -14359.6,4025.3 -18140.6,3410.7 -3780.9,-614.6 3478.4,-21864.8 19037.7,-21716.8z"/>
    <polygon class="fil1 str0" points="67379.2,261.7 81521.3,16648.1 89627,19850.1 82644.5,30057.8 "/>
    <polygon class="fil1 str0" points="129122.4,2378.7 112874.9,16526.5 103562.6,19291 111584.5,28104.2 "/>
    <polygon class="face str0" points="95893.1,37366.7 97034.7,42708.3 98176.2,48050 95893.1,48050 93610,48050 94751.6,42708.3 "/>
    <polygon class="face str0" points="90626.6,49270.6 101437.2,49065.8 109688.6,55383.5 95784,53007.3 81614.5,54807.7 "/>
    <ellipse class="face str0" cx="90121.8" cy="37267.8" rx="2974.3" ry="243.3"/>
    <ellipse class="face str0" cx="103037.6" cy="37299.1" rx="3082.4" ry="219"/>
   </g>
   <path class="mouth" d="M95784.1 53007.3c1970.6,0 5646.9,801.8 5646.9,1789.3 0,987.4 -2755,2122.9 -4725.6,2122.9 -1970.6,0 -6792.5,-1693.5 -6792.5,-2680.9 0,-987.5 3900.6,-1231.3 5871.2,-1231.3z"/>
  </g>
  <ellipse class="fil01" cx="33273.9" cy="76339.8" rx="31868" ry="34715.1"/>
  <g id="_1997793337248">
   <g style="clip-path:url(#id1)">
    <image x="-5644.4" y="54595.9" width="102877.3" height="109947.4" xlink:href="4_Images\4_ImgID2.jpg"/>
   </g>
  </g>
  <ellipse class="fil0" cx="41338.4" cy="112081" rx="39568.2" ry="43103.2"/>
  <g id="_1997793338160">
   <g style="clip-path:url(#id2)">
    <image x="73590.7" y="100365.1" width="75812.2" height="79420.1" xlink:href="4_Images\4_ImgID3.jpg"/>
   </g>
  </g>
  <ellipse class="fil01" cx="106032.3" cy="144208.9" rx="29158.6" ry="30962.6"/>
  <g id="_1997793337776">
   <g style="clip-path:url(#id3)">
    <image x="422023" y="77966.4" width="98855.1" height="94069" xlink:href="4_Images\4_ImgID4.jpg"/>
   </g>
  </g>
  <ellipse class="fil0" cx="481088.9" cy="126513.2" rx="38573.3" ry="36180.4"/>
  <g id="_1997793337872">
   <g style="clip-path:url(#id4)">
    <image x="243582.7" y="125035.9" width="63103" height="60047.9" xlink:href="4_Images\4_ImgID5.jpg"/>
   </g>
  </g>
  <ellipse class="fil0" cx="275447.9" cy="156138.1" rx="24622.8" ry="23095.3"/>
  <g id="_1997793333072">
   <g style="clip-path:url(#id5)">
    <image x="207163.1" y="109288.6" width="70485.8" height="67073.7" xlink:href="4_Images\4_ImgID6.jpg"/>
   </g>
  </g>
  <ellipse class="fil01" cx="242756.9" cy="144029.6" rx="27503.8" ry="25797.6"/>
  <g id="_1997793334944">
   <g style="clip-path:url(#id6)">
    <image x="116544.7" y="81154.1" width="103825.7" height="98798.8" xlink:href="4_Images\4_ImgID7.jpg"/>
   </g>
  </g>
  <ellipse class="fil0" cx="168973.6" cy="132324.3" rx="40512.9" ry="37999.7"/>
  <g id="_1997793334416">
   <g style="clip-path:url(#id7)">
    <image x="176338.9" y="124035.7" width="61649.6" height="58664.9" xlink:href="4_Images\4_ImgID8.jpg"/>
   </g>
  </g>
  <ellipse class="fil01" cx="207469.9" cy="154421.3" rx="24055.9" ry="22563.5"/>
  <g id="_1997793331584">
   <g style="clip-path:url(#id8)">
    <image x="501948.8" y="108701.3" width="58165.6" height="60934" xlink:href="4_Images\4_ImgID9.jpg"/>
   </g>
  </g>
  <ellipse class="fil0" cx="325863.8" cy="146153.8" rx="36745.7" ry="34466.2"/>
  <ellipse class="fil0" cx="536622.5" cy="140160.8" rx="22371.5" ry="23755.6"/>
  <g id="_1997793328992">
   <g style="clip-path:url(#id9)">
    <image x="34119.2" y="112909.5" width="53128" height="55657" xlink:href="4_Images\4_ImgID10.jpg"/>
   </g>
  </g>
  <ellipse class="fil01" cx="57296" cy="143391.9" rx="20434" ry="21698.3"/>
  <g id="_1997793394608">
   <g style="clip-path:url(#id10)">
    <image x="278778.2" y="101347.8" width="94171.2" height="89611.9" xlink:href="4_Images\4_ImgID11.jpg"/>
    
   </g>
  </g>
  <g>
  
  <path class="fil1" d="M175247.6 61830.3c1485.4,0 2763,258.8 3330.2,630.1l93.4 -10723.3 -12015.1 70.4c-9.6,3894.8 265,7725.3 265,11350.2 0,586 -1631.2,1061.1 -3643.4,1061.1 -2012.3,0 -3643.5,-475.1 -3643.5,-1061.1 0,-586 1631.2,-1061 3643.5,-1061 1365.7,0 2555.6,218.8 3179.5,542.6l27.9 -11387.2c0,-47.2 38.3,-85.5 85.5,-85.5l12176.3 -28c47.2,0 85.5,38.2 85.5,85.5 -29,3892.4 58.7,7848.6 58.7,11667.2 0,586 -1631.2,1061.1 -3643.5,1061.1 -2012.2,0 -3643.4,-475.1 -3643.4,-1061.1 0,-586 1631.2,-1061 3643.4,-1061z"/>
  <path class="fil1" d="M508494.4 117831.3c11473.2,65.9 21329.5,2214.3 25694.1,5239.4l1218.8 -86648.3 -92811.1 35.5c-254.5,31472.8 1688.8,62438.7 1520.5,91730.4 -27.2,4735.5 -12649.2,8501.7 -28192.2,8412.4 -15543.1,-89.3 -28120.9,-4000.3 -28093.7,-8735.7 27.2,-4735.5 12649.2,-8501.7 28192.2,-8412.4 10548.9,60.6 19730.3,1881.9 24534,4526.2l744.1 -92016c2.2,-381.6 299.7,-689.4 664.5,-687.3l94054 313.5c364.8,2.1 658.8,313.3 656.6,694.9 -404.1,31452.4 89.2,63425.5 -88.1,94283.1 -27.2,4735.4 -12649.1,8501.6 -28192.2,8412.3 -15543.1,-89.3 -28120.9,-4000.3 -28093.7,-8735.7 27.2,-4735.4 12649.1,-8501.6 28192.2,-8412.3z"/>
   <path class="fil1" d="M247994.5 87380.2c3706.1,0 6893.9,645.9 8309.3,1572.2l232.9 -26756.2 -29979.5 175.6c-23.8,9718.2 661.4,19276 661.4,28320.6 0,1462.2 -4070.2,2647.4 -9091,2647.4 -5020.8,0 -9090.9,-1185.2 -9090.9,-2647.4 0,-1462.2 4070.1,-2647.5 9090.9,-2647.5 3407.6,0 6376.7,546 7933.3,1354l69.6 -28412.7c0,-117.9 95.5,-213.4 213.4,-213.4l30381.6 -70.1c117.8,0 213.4,95.6 213.4,213.4 -72.2,9712.2 146.5,19583.5 146.5,29111.6 0,1462.2 -4070.1,2647.5 -9090.9,2647.5 -5020.9,0 -9091,-1185.3 -9091,-2647.5 0,-1462.2 4070.1,-2647.5 9091,-2647.5z"/>
  <path class="fil1" d="M146671.3 75988c975.2,0 1813.9,169.9 2186.4,413.7l61.2 -7040.1 -7888.2 46.2c-6.2,2557 174.1,5071.9 174.1,7451.7 0,384.7 -1071,696.6 -2392,696.6 -1321.1,0 -2392,-311.9 -2392,-696.6 0,-384.8 1070.9,-696.6 2392,-696.6 896.6,0 1677.8,143.7 2087.4,356.2l18.3 -7475.9c0,-31 25.1,-56.1 56.1,-56.1l7994 -18.5c31,0 56.2,25.2 56.2,56.2 -19,2555.4 38.5,5152.8 38.5,7659.8 0,384.7 -1070.9,696.6 -2392,696.6 -1321.1,0 -2392,-311.9 -2392,-696.6 0,-384.7 1070.9,-696.6 2392,-696.6z"/>
  <g class="ani">
 
  <path class="fil1" d="M375623 81918.4c9102.4,0 16931.7,1586.2 20408.1,3861.3l572 -65714.4 -73630.9 431.3c-58.5,23868.3 1624.4,47342.6 1624.4,69556.5 0,3591.2 -9996.4,6502.2 -22327.8,6502.2 -12331.4,0 -22327.7,-2911 -22327.7,-6502.2 0,-3591.2 9996.3,-6502.3 22327.7,-6502.3 8369.2,0 15661.5,1341.1 19484.5,3325.5l170.9 -69782.9c0,-289.4 234.7,-524 524.1,-524l74618.5 -172.1c289.4,0 524.1,234.7 524.1,524.1 -177.3,23853.4 359.9,48097.8 359.9,71499.2 0,3591.2 -9996.4,6502.3 -22327.8,6502.3 -12331.4,0 -22327.8,-2911.1 -22327.8,-6502.3 0,-3591.2 9996.4,-6502.2 22327.8,-6502.2z"/>
  </g>
  <g>
  <path class="fil1" d="M125191.1 57498.4c630.8,0 1173.4,109.9 1414.3,267.6l39.7 -4554.2 -5102.9 29.9c-4.1,1654.1 112.5,3281 112.5,4820.5 0,248.9 -692.7,450.6 -1547.4,450.6 -854.6,0 -1547.4,-201.7 -1547.4,-450.6 0,-248.9 692.8,-450.7 1547.4,-450.7 580.1,0 1085.4,93 1350.4,230.5l11.8 -4836.2c0,-20.1 16.3,-36.3 36.4,-36.3l5171.3 -11.9c20.1,0 36.3,16.2 36.3,36.3 -12.3,1653.1 25,3333.3 25,4955.1 0,248.9 -692.8,450.7 -1547.4,450.7 -854.6,0 -1547.4,-201.8 -1547.4,-450.7 0,-248.8 692.8,-450.6 1547.4,-450.6z"/>
  <path class="fil1" d="M225976.8 33843.4c3430.4,0 6380.9,597.9 7691,1455.2l215.6 -24765 -27748.5 162.5c-22,8995 612.2,17841.5 612.2,26213 0,1353.4 -3767.3,2450.4 -8414.4,2450.4 -4647.2,0 -8414.4,-1097 -8414.4,-2450.4 0,-1353.4 3767.2,-2450.5 8414.4,-2450.5 3154,0 5902.1,505.5 7342.9,1253.3l64.4 -26298.3c0,-109.1 88.4,-197.5 197.5,-197.5l28120.6 -64.8c109.1,0 197.5,88.4 197.5,197.5 -66.8,8989.3 135.7,18126.1 135.7,26945.1 0,1353.4 -3767.3,2450.4 -8414.5,2450.4 -4647.1,0 -8414.4,-1097 -8414.4,-2450.4 0,-1353.4 3767.3,-2450.5 8414.4,-2450.5z"/>
    </g>
  
  </g>
 </g>
</svg>
