<?xml version="1.0" encoding="UTF-8"?>
<!DOCTYPE svg PUBLIC "-//W3C//DTD SVG 1.1//EN" "http://www.w3.org/Graphics/SVG/1.1/DTD/svg11.dtd">
<!-- Creator: CorelDRAW 2021.5 -->
<svg xmlns="http://www.w3.org/2000/svg" xml:space="preserve" width="282.222mm" height="282.222mm" version="1.1" style="shape-rendering:geometricPrecision; text-rendering:geometricPrecision; image-rendering:optimizeQuality; fill-rule:evenodd; clip-rule:evenodd"
viewBox="0 0 282222.2 282222.2"
 xmlns:xlink="http://www.w3.org/1999/xlink"
 xmlns:xodm="http://www.corel.com/coreldraw/odm/2003">
 <defs>
  <style type="text/css">
   <![CDATA[
    .fil0 {fill:black}
   ]]>
  </style>
 </defs>
 <g id="Слой_x0020_1">
  <metadata id="CorelCorpID_0Corel-Layer"/>
  <path class="fil0" d="M225200.6 203592c21256.1,0 39539,3704.3 47657,9017l1335.8 -153456.4 -171943.1 1007.2c-136.5,55737.3 3793.3,110554.4 3793.3,162428.3 0,8386.2 -23343.7,15184.1 -52139.8,15184.1 -28796.3,0 -52139.9,-6797.9 -52139.9,-15184.1 0,-8386.1 23343.6,-15184.1 52139.9,-15184.1 19543.6,0 36572.6,3131.8 45500.2,7765.8l399.1 -162957.2c0,-675.8 548,-1223.8 1223.8,-1223.8l174249.4 -401.7c675.8,0 1223.8,548 1223.8,1223.8 -413.9,55702.6 840.4,112318.1 840.4,166965.2 0,8386.1 -23343.6,15184.1 -52139.9,15184.1 -28796.3,0 -52139.8,-6798 -52139.8,-15184.1 0,-8386.2 23343.5,-15184.1 52139.8,-15184.1z"/>
 </g>
</svg>
