<?xml version="1.0" encoding="utf-8"?>
<!-- Generator: Adobe Illustrator 25.4.1, SVG Export Plug-In . SVG Version: 6.00 Build 0)  -->
<!DOCTYPE svg PUBLIC "-//W3C//DTD SVG 1.1//EN" "http://www.w3.org/Graphics/SVG/1.1/DTD/svg11.dtd" [
	<!ENTITY ns_extend "http://ns.adobe.com/Extensibility/1.0/">
	<!ENTITY ns_ai "http://ns.adobe.com/AdobeIllustrator/10.0/">
	<!ENTITY ns_graphs "http://ns.adobe.com/Graphs/1.0/">
	<!ENTITY ns_vars "http://ns.adobe.com/Variables/1.0/">
	<!ENTITY ns_imrep "http://ns.adobe.com/ImageReplacement/1.0/">
	<!ENTITY ns_sfw "http://ns.adobe.com/SaveForWeb/1.0/">
	<!ENTITY ns_custom "http://ns.adobe.com/GenericCustomNamespace/1.0/">
	<!ENTITY ns_adobe_xpath "http://ns.adobe.com/XPath/1.0/">
]>
<svg version="1.1"
	 id="Слой_1" xmlns:x="&ns_extend;" xmlns:i="&ns_ai;" xmlns:graph="&ns_graphs;" xmlns:xodm="http://www.corel.com/coreldraw/odm/2003"
	 xmlns="http://www.w3.org/2000/svg" xmlns:xlink="http://www.w3.org/1999/xlink" x="0px" y="0px" viewBox="0 0 283.5 283.5"
	 style="enable-background:new 0 0 283.5 283.5;" xml:space="preserve">
<style type="text/css">
	.st0{fill-rule:evenodd;clip-rule:evenodd;fill:#FFFFFF;}
</style>
<metadata  id="CorelCorpID_0Corel-Layer">
	<sfw  xmlns="&ns_sfw;">
		<slices></slices>
		<sliceSourceBounds  bottomLeftOrigin="true" height="276.7" width="243.1" x="20.1" y="3.3"></sliceSourceBounds>
	</sfw>
</metadata>
<g id="Слой_x0020_1">
	<path class="st0" d="M141.6,247c33.5,0,63.9-13.6,85.8-35.6c22.1-22.1,35.7-52.6,35.7-86.2c0-43.5-22.8-81.6-57-103.2v83.7H189
		V13.1c-1.8-0.8-3.7-1.5-5.6-2.2l-33.9,94.9h-16.1l-33-95.1c-2.1,0.7-4.1,1.5-6.1,2.4v92.7H77.1V22.1c-34.2,21.5-57,59.7-57,103.2
		C20.1,192.5,74.5,247,141.6,247z M170.4,6.9c-9.2-2.2-18.8-3.4-28.7-3.4c-9.1,0-17.9,1-26.5,2.9l20.8,60.7c3,8.7,5.1,15.2,6.5,19.6
		c1.5-4.8,4-11.9,7.2-21.2L170.4,6.9L170.4,6.9z M160.8,269c2.6,0,5,0.2,7.2,0.6V226h-53.3c0,16.2,0.1,32.4,0.1,48.6
		c0,3.1-7.2,5.6-16,5.6c-8.8,0-16-2.5-16-5.6c0-3.1,7.2-5.6,16-5.6c2.6,0,5,0.2,7.1,0.6V226v-0.4v-9.5h70.8v9.9h0
		c0,16.2,0.1,32.4,0.1,48.5c0,3.1-7.2,5.6-16,5.6c-8.8,0-16-2.5-16-5.6C144.8,271.5,151.9,269,160.8,269L160.8,269z M76.9,108.4
		l129.5,0.2l-0.1,44.6c0,10.1-0.6,17.8-1.9,23.1c-1.7,7.4-4.8,13.7-9.3,19c-5.8,6.8-13.2,11.9-22.2,15.3c-9,3.4-19.3,5.1-30.8,5
		c-9.8,0-18.5-1.2-26.1-3.5c-7.6-2.3-13.9-5.3-18.9-8.9c-5-3.6-8.9-7.6-11.7-11.8c-2.9-4.3-5-9.4-6.5-15.4c-1.5-6.1-2.2-13-2.2-20.8
		C76.8,155.2,76.9,108.4,76.9,108.4z M92.1,125.7l0,27.6c0,8.5,0.8,15.2,2.3,20.1c1.6,4.9,3.8,8.7,6.7,11.6c4.1,4,9.5,7.2,16.4,9.5
		c6.9,2.3,15.2,3.4,25,3.4c13.6,0,24-2.2,31.3-6.6c7.3-4.4,12.2-9.8,14.7-16.2c1.8-4.6,2.7-12,2.7-22.2l0-27.2L92.1,125.7
		L92.1,125.7z M141.6,168.7c6,0,10.8,3.1,10.8,7s-4.8,7-10.8,7c-6,0-10.8-3.1-10.8-7S135.6,168.7,141.6,168.7z"/>
</g>
</svg>
