
<svg xmlns="http://www.w3.org/2000/svg" xml:space="preserve" width="70.5554mm" height="70.5554mm" version="1.1" style="shape-rendering:geometricPrecision; text-rendering:geometricPrecision; image-rendering:optimizeQuality; fill-rule:evenodd; clip-rule:evenodd"
viewBox="0 0 70555.4 70555.4"
 xmlns:xlink="http://www.w3.org/1999/xlink"
 xmlns:xodm="http://www.corel.com/coreldraw/odm/2003">
 <defs>
  <style type="text/css">
   <![CDATA[
    .str0 {stroke:white;stroke-width:529.2;stroke-miterlimit:22.9256}
    .fil0 {fill:none}
    .fil1 {fill:white;fill-rule:nonzero}
   ]]>
  </style>
 </defs>
 <g id="Слой_x0020_1">
  <metadata id="CorelCorpID_0Corel-Layer"/>
  <path id="icon1" class="fil0 str0" d="M15148 41569.8l-5781.7 0c-1608.7,0 -2924.8,-1316.3 -2924.8,-2924.8l0 -5781.7c0,-1608.6 1316.1,-2924.7 2924.8,-2924.7l5781.7 0c1608.6,0 2924.7,1316.1 2924.7,2924.7l0 5781.7c0,1608.5 -1316.1,2924.8 -2924.7,2924.8zm920.3 -9194.6c299,0 541,-242 541,-541 0,-298.8 -242,-541.1 -541,-541.1 -299,0 -541.1,242.3 -541.1,541.1 0,299 242.1,541 541.1,541zm-3811.1 5691c1276.9,0 2312,-1035.2 2312,-2312.1 0,-1276.9 -1035.1,-2312.1 -2312,-2312.1 -1277,0 -2312.1,1035.2 -2312.1,2312.1 0,1276.9 1035.1,2312.1 2312.1,2312.1z"/>
  <path id="icon2" class="fil1" d="M33723.9 35120.4l-1.5 -2.1c-1176.3,2.1 -2184.1,245 -2882.6,746.8 -1213.2,871.9 -1479.9,2815.3 -349.9,3851.4 1084.4,994.8 4348.7,1223.8 4366.1,-508.9l-1.2 -9063.8 1398.6 0c64.9,1394.4 310.2,1715.7 1754.6,2388.7l25.8 1093.3c-989.5,-175.5 -1305.5,-331 -2082.6,-1064.3l-1.9 6650.4c-15.1,1671.3 -2011.4,2368.1 -3448.8,2357.8 -685.8,-4.8 -1890.7,-257 -2752.2,-1047.3 -600,-550.4 -1037.7,-1347.8 -1039.8,-2478.1l-2.1 -0.6c-0.2,-1378.1 557,-2392.4 1494.6,-3066.2 891.2,-640.4 2120.1,-949.8 3521.4,-952.5l1.5 1095.4z"/>
  <path id="icon3" class="fil0 str0" d="M50313.4 41569.8l10943.4 0c1427.9,0 2595.9,-1168 2595.9,-2595.9l0 -6319c0,-1427.9 -1168,-2595.9 -2595.9,-2595.9l-10943.4 0c-1427.9,0 -2596,1168 -2596,2595.9l0 6319c0,1427.9 1168.1,2595.9 2596,2595.9zm6609 -5805.8c-1.8,336.6 -2271.6,2121.5 -2268.9,1957 2.6,-164.5 -14.2,-3519.3 0,-3795.1 14.2,-275.7 2270.8,1501.6 2268.9,1838.1z"/>
 </g>
</svg>
